<?xml version="1.0" standalone="no"?>
<!DOCTYPE svg PUBLIC "-//W3C//DTD SVG 20010904//EN"
 "http://www.w3.org/TR/2001/REC-SVG-20010904/DTD/svg10.dtd">
<svg version="1.0" xmlns="http://www.w3.org/2000/svg"
 width="738.000000pt" height="738.000000pt" viewBox="0 0 738.000000 738.000000"
 preserveAspectRatio="xMidYMid meet">
<metadata>
Created by potrace 1.14, written by Peter Selinger 2001-2017
</metadata>
<g transform="translate(0.000000,738.000000) scale(0.100000,-0.100000)"
fill="#000000" stroke="none">
<path d="M1787 7314 c-1 -1 -29 -4 -62 -7 -161 -15 -315 -72 -469 -174 -67
-45 -256 -224 -256 -243 0 -5 -6 -15 -13 -22 -20 -20 -79 -125 -111 -196 -35
-79 -73 -235 -80 -329 -5 -63 -4 -73 11 -80 10 -5 249 -8 531 -7 l512 1 0
-366 c0 -397 8 -482 54 -620 123 -359 422 -621 798 -700 l93 -19 -100 -1 c-55
0 -116 -3 -135 -5 -19 -3 -62 -7 -95 -11 -61 -6 -100 -12 -145 -20 -14 -3 -41
-7 -60 -10 -19 -4 -55 -11 -80 -16 -25 -6 -52 -12 -60 -14 -34 -7 -236 -66
-255 -75 -11 -5 -63 -25 -115 -46 -390 -152 -762 -416 -1052 -747 -96 -109
-101 -117 -176 -222 -188 -266 -337 -587 -417 -899 -59 -231 -77 -354 -89
-623 l-4 -73 575 0 575 0 -36 38 c-160 170 -245 347 -279 577 -18 123 -13 268
12 385 6 30 8 25 15 -45 22 -244 128 -469 305 -646 179 -178 415 -288 651
-304 235 -16 242 -17 340 -43 195 -52 414 -233 510 -422 28 -55 68 -160 75
-197 3 -15 7 -39 10 -53 19 -82 10 -258 -19 -375 -46 -191 -197 -387 -387
-504 -44 -27 -76 -51 -72 -54 11 -6 178 -44 223 -51 341 -49 675 -4 970 130
301 136 554 353 738 632 23 35 42 65 42 67 0 2 13 26 28 52 81 139 155 361
189 563 10 60 10 420 0 495 -22 165 -78 341 -167 520 -88 176 -176 301 -310
435 -173 174 -343 290 -560 383 -105 45 -262 91 -345 102 -69 9 -85 21 -27 21
283 0 538 108 744 315 193 193 301 442 307 702 l1 37 1628 0 1628 0 -3 53 c-5
113 -13 244 -18 277 -3 19 -8 49 -10 65 -3 17 -7 50 -11 75 -3 25 -7 51 -10
59 -2 7 -11 48 -20 90 -38 182 -141 467 -236 649 -393 754 -1102 1287 -1926
1446 -70 13 -156 27 -192 31 -36 3 -78 9 -95 12 -24 5 -3062 12 -3068 7z
m2033 -1255 l0 -197 46 5 c106 11 211 73 275 162 40 56 72 141 73 196 l1 30
104 1 104 2 -6 -67 c-21 -240 -202 -468 -433 -545 -78 -26 -92 -28 -194 -32
-168 -6 -309 44 -438 154 -127 107 -209 270 -225 443 l-4 46 349 0 348 0 0
-198z"/>
</g>
</svg>
